<?xml version="1.0" standalone="no"?>
<!DOCTYPE svg PUBLIC "-//W3C//DTD SVG 20010904//EN"
 "http://www.w3.org/TR/2001/REC-SVG-20010904/DTD/svg10.dtd">
<svg version="1.0" xmlns="http://www.w3.org/2000/svg"
 width="1000.000000pt" height="1000.000000pt" viewBox="0 0 1000.000000 1000.000000"
 preserveAspectRatio="xMidYMid meet">
<metadata>
Created by potrace 1.14, written by Peter Selinger 2001-2017
</metadata>
<g transform="translate(0.000000,1000.000000) scale(0.100000,-0.100000)"
fill="#000000" stroke="none">
<path d="M5134 9045 c-12 -8 -24 -11 -28 -8 -3 3 -28 -13 -55 -35 -27 -23 -52
-42 -55 -42 -3 0 -6 21 -8 47 l-3 47 -62 -58 c-43 -40 -68 -56 -79 -52 -9 4
-22 2 -28 -3 -8 -7 -27 -6 -54 1 -43 11 -78 5 -67 -12 11 -17 -34 -90 -55 -90
-16 0 -20 7 -20 38 0 20 -4 43 -9 51 -11 18 -27 -6 -77 -114 -20 -44 -38 -82
-40 -84 -1 -2 -19 7 -40 19 l-36 23 7 -24 c4 -13 10 -30 12 -36 8 -20 -2 -16
-63 23 -30 20 -58 34 -60 31 -2 -2 2 -22 10 -45 21 -60 6 -103 -24 -67 -20 24
-27 18 -34 -30 -4 -25 -11 -45 -16 -45 -5 0 -17 -14 -25 -31 -9 -17 -18 -29
-20 -27 -2 2 3 37 11 77 17 83 14 100 -9 44 -8 -21 -23 -56 -33 -78 l-17 -40
-12 34 -11 35 -53 -87 c-62 -104 -77 -116 -68 -59 4 22 9 49 13 59 3 10 -11
-13 -32 -52 l-36 -69 -18 22 c-10 12 -20 22 -23 22 -3 0 -8 -18 -12 -39 -6
-35 -10 -39 -32 -37 -14 2 -29 9 -35 17 -7 10 -8 7 -4 -13 3 -14 9 -33 12 -42
8 -20 -10 -21 -26 -1 -7 9 -26 25 -41 36 l-28 20 6 -37 c6 -34 4 -37 -13 -30
-15 6 -14 3 5 -18 38 -40 17 -43 -57 -8 l-67 33 43 -38 c23 -21 42 -42 42 -47
0 -8 -57 -3 -97 10 -15 4 -14 2 3 -11 19 -14 21 -20 11 -58 -13 -57 -23 -65
-45 -37 l-19 24 -17 -56 c-9 -31 -16 -61 -16 -66 0 -24 -23 -22 -56 3 -19 15
-37 25 -39 23 -2 -2 3 -32 10 -68 8 -36 14 -69 15 -73 0 -4 -16 4 -36 19 l-36
28 7 -95 c3 -52 8 -105 11 -118 4 -18 1 -22 -10 -18 -17 7 -16 3 23 -87 12
-27 20 -51 18 -53 -2 -2 -21 15 -41 37 -20 22 -36 36 -36 31 0 -5 14 -53 30
-106 17 -54 29 -100 27 -102 -2 -2 -19 3 -38 11 -83 34 -86 32 -38 -23 l46
-52 11 -187 c8 -129 21 -231 41 -327 16 -77 28 -141 27 -143 -2 -1 -13 21 -25
50 l-21 53 5 -79 c4 -43 9 -93 12 -110 6 -28 5 -30 -10 -17 -12 10 -31 12 -66
7 -30 -4 -52 -2 -56 4 -10 17 -61 11 -88 -10 -30 -24 -34 -40 -47 -227 0 -2
-112 -3 -250 -3 l-250 0 0 -105 0 -105 269 0 268 0 26 -92 c23 -81 117 -447
117 -455 0 -2 -86 -3 -190 -3 l-191 0 3 -56 3 -55 207 0 206 0 42 -54 c43 -56
113 -115 137 -115 7 0 13 9 13 19 0 26 15 34 29 18 6 -8 26 -64 45 -125 l33
-112 -536 -2 -536 -3 0 -60 0 -60 558 -5 559 -5 24 -60 c13 -33 28 -68 34 -77
9 -17 -6 -18 -233 -20 l-242 -3 -3 -97 -3 -98 319 0 319 0 50 -62 c28 -35 53
-76 56 -93 5 -27 0 -24 -53 35 -32 36 -61 62 -65 59 -3 -4 2 -60 11 -125 23
-155 26 -488 5 -527 -9 -18 -30 -32 -63 -43 -27 -9 -52 -22 -55 -29 -4 -11
-52 -35 -69 -35 -2 0 1 12 6 26 6 14 10 27 10 29 0 2 -21 -5 -47 -16 -124 -54
-372 -143 -498 -179 -128 -37 -143 -43 -172 -78 -18 -20 -33 -40 -33 -43 0 -8
-196 -179 -204 -179 -3 0 8 20 25 44 32 49 63 116 53 116 -4 0 -27 -16 -51
-36 -57 -47 -180 -83 -167 -49 4 8 4 15 1 15 -29 0 -518 -131 -677 -182 -104
-33 -142 -52 -211 -109 -50 -42 -61 -67 -80 -189 -6 -41 -18 -84 -25 -95 -32
-45 -40 -44 456 -38 l470 5 0 -36 0 -36 -497 -1 c-686 -2 -603 5 -633 -51
l-25 -48 -277 0 -278 0 0 -85 0 -85 236 0 c221 0 236 -1 229 -17 -54 -135 -98
-264 -141 -415 -5 -17 -27 -18 -280 -18 l-274 0 0 -105 0 -105 245 0 c135 0
245 -3 245 -7 0 -5 -9 -39 -18 -78 l-18 -70 -81 1 -80 0 -6 -75 c-3 -41 -4
-79 -1 -83 3 -4 76 -8 163 -8 l157 0 39 -40 39 -40 -97 0 -97 0 0 -40 0 -40
149 0 c83 0 152 -3 155 -8 2 -4 26 -23 53 -41 l48 -34 -34 36 -35 37 33 0 c23
0 49 -13 91 -45 243 -187 546 -316 885 -376 167 -30 522 -37 728 -15 173 18
349 46 360 56 5 4 9 29 10 56 l2 49 53 3 52 3 0 -40 c0 -22 4 -42 8 -45 10 -6
311 67 492 119 234 67 534 167 1100 365 1188 416 1606 533 2185 611 214 29
611 36 807 15 198 -21 465 -77 581 -121 10 -5 17 -2 17 5 0 6 -44 98 -97 203
-54 105 -99 194 -101 197 -1 4 68 10 154 13 87 4 159 9 161 11 2 2 1 20 -2 40
l-7 36 -179 0 -179 0 -37 73 c-21 39 -39 75 -41 80 -2 4 62 7 142 7 l146 0 0
43 c0 23 -3 59 -6 79 l-7 38 -182 0 -183 0 -61 103 c-33 56 -85 129 -115 163
-52 58 -61 63 -230 135 l-176 74 0 33 c0 31 -2 32 -40 32 -29 0 -40 -4 -40
-15 0 -8 -1 -15 -3 -15 -1 0 -41 16 -87 36 -61 26 -94 34 -117 30 l-33 -5 0
105 0 104 -291 0 -290 0 -255 85 c-195 64 -267 93 -304 120 -26 19 -51 35 -55
35 -3 0 3 -16 15 -36 12 -19 20 -37 17 -40 -6 -7 -135 127 -228 235 l-64 75
-11 -90 c-6 -49 -12 -91 -14 -94 -6 -13 -19 84 -19 153 l-1 77 315 0 315 0 0
130 0 130 -242 0 c-134 0 -273 3 -310 7 l-68 6 0 39 0 39 -49 -42 c-43 -37
-81 -57 -81 -42 0 2 26 37 58 76 50 61 66 91 105 202 26 72 47 133 47 138 0 4
-31 7 -70 7 l-70 0 0 110 0 110 113 0 113 0 52 135 c29 74 52 145 52 157 1 22
2 21 16 -4 18 -35 66 -38 123 -8 61 31 77 59 84 142 3 40 46 262 97 492 l92
419 -27 81 c-15 45 -32 87 -38 94 -27 35 -99 -5 -192 -107 -47 -52 -57 -59
-51 -37 11 43 25 214 26 299 0 54 4 78 13 79 23 3 92 5 285 6 l192 2 0 130 0
130 -147 0 c-82 0 -185 3 -231 7 l-83 6 7 142 c4 79 4 154 0 169 -6 24 -10 26
-61 26 l-55 0 0 85 0 85 69 0 70 0 15 54 c38 129 38 123 -20 208 l-52 77 92
53 91 53 -120 3 -119 3 114 64 c63 36 110 65 104 65 -10 0 -115 -20 -191 -35
-18 -4 -16 3 23 61 24 36 44 69 44 73 0 5 -38 6 -85 4 -47 -3 -85 -3 -85 0 0
2 19 17 43 33 l42 28 -30 6 c-27 5 -24 7 28 18 66 16 67 32 0 32 -40 0 -50 5
-77 34 -31 34 -32 35 -136 41 -57 3 -106 7 -107 9 -2 2 12 15 32 30 41 32 44
46 10 46 -20 0 -25 5 -25 25 0 23 -4 25 -47 25 -27 0 -65 3 -85 6 l-37 6 50
75 c28 41 49 76 47 78 -2 2 -21 0 -43 -5 -59 -14 -85 -13 -79 4 8 21 -71 1
-96 -24 -11 -11 -28 -20 -37 -20 -10 0 -29 -3 -43 -6 -25 -5 -25 -5 3 11 15 8
27 17 27 19 0 2 -30 -3 -67 -11 -37 -7 -74 -12 -81 -11 -10 2 9 38 57 111 39
59 71 110 71 113 0 3 -38 -16 -85 -41 -47 -26 -85 -44 -85 -40 0 3 14 27 31
52 l31 45 -97 -53 c-90 -48 -97 -50 -90 -28 6 21 2 19 -32 -13 -50 -49 -60
-48 -27 3 14 22 24 43 21 45 -2 2 -28 0 -57 -6 -68 -13 -70 -13 -64 4 4 11 -3
12 -38 5 -24 -4 -46 -8 -50 -9 -4 0 6 20 22 44 64 95 19 118 -65 34 -28 -29
-59 -64 -68 -77 -9 -14 -20 -22 -23 -18 -4 3 4 21 18 39 69 90 69 151 2 103z
m-368 -170 c18 -14 18 -14 -8 -15 -18 0 -28 5 -28 15 0 19 11 19 36 0z m-412
-240 c3 -8 1 -15 -4 -15 -6 0 -10 7 -10 15 0 8 2 15 4 15 2 0 6 -7 10 -15z
m-156 -653 c3 -18 -2 -22 -22 -22 -21 0 -26 5 -26 23 0 32 43 31 48 -1z m1232
-242 l0 -70 -325 0 -325 0 0 70 0 70 325 0 325 0 0 -70z m-100 -570 l0 -80
-80 0 -80 0 0 80 0 80 80 0 80 0 0 -80z m-770 -85 l0 -65 -290 0 -290 0 0 65
0 65 290 0 290 0 0 -65z m1588 -377 l-3 -92 -32 -3 -33 -4 0 95 0 96 35 0 36
0 -3 -92z m-528 37 c0 -13 -104 -15 -880 -15 -776 0 -880 2 -880 15 0 13 104
15 880 15 776 0 880 -2 880 -15z m40 -60 c0 -33 -2 -35 -35 -35 -33 0 -35 2
-35 35 0 33 2 35 35 35 33 0 35 -2 35 -35z m295 -300 c0 -20 -8 -20 -402 -23
-401 -3 -403 -3 -403 17 0 20 5 21 273 24 519 5 532 5 532 -18z m-1145 -250
l0 -155 -150 0 -150 0 0 155 0 155 150 0 150 0 0 -155z m-500 -135 l0 -70 -65
0 -65 0 0 70 0 70 65 0 65 0 0 -70z m470 -290 l0 -40 -40 0 -40 0 0 40 0 40
40 0 40 0 0 -40z m958 -197 l3 -53 -705 0 -706 0 0 55 0 55 703 -2 702 -3 3
-52z m572 7 l0 -40 -40 0 -40 0 0 40 0 40 40 0 40 0 0 -40z m-750 -350 l0 -60
-55 0 -55 0 0 60 0 60 55 0 55 0 0 -60z m-1303 -747 c120 -140 149 -190 55
-95 -57 56 -246 291 -262 324 -12 25 18 -8 207 -229z m1113 67 l0 -110 -105 0
-105 0 0 110 0 110 105 0 105 0 0 -110z m-462 -62 c-3 -23 -4 -23 -200 -26
-192 -2 -198 -2 -198 17 0 19 8 21 123 24 67 1 157 4 200 5 76 2 78 1 75 -20z
m32 -233 c0 -33 -2 -35 -35 -35 -33 0 -35 2 -35 35 0 33 2 35 35 35 33 0 35
-2 35 -35z m1708 -521 c2 -22 -2 -25 -26 -22 -20 2 -27 9 -28 26 -1 17 4 22
25 22 21 0 27 -5 29 -26z m-2777 -36 l-9 -33 -1 36 c-1 20 2 39 6 43 13 12 15
-10 4 -46z m2729 -213 c0 -33 -2 -35 -35 -35 -33 0 -35 2 -35 35 0 33 2 35 35
35 33 0 35 -2 35 -35z m822 -6 c-35 -10 -35 -29 1 -29 12 0 17 -4 12 -9 -12
-10 -167 -62 -172 -57 -2 2 24 26 59 54 50 41 70 51 98 51 l35 -1 -33 -9z
m-4892 -124 c0 -20 -5 -25 -25 -25 -20 0 -25 5 -25 25 0 20 5 25 25 25 20 0
25 -5 25 -25z m5250 -60 l0 -35 -635 0 -635 1 0 34 0 35 635 0 635 0 0 -35z
m-3192 -97 l3 -68 -331 0 -330 0 0 70 0 70 328 -2 327 -3 3 -67z m-1998 -103
c0 -33 -2 -35 -35 -35 -33 0 -35 2 -35 35 0 33 2 35 35 35 33 0 35 -2 35 -35z
m5430 -295 l0 -70 -70 0 -70 0 0 70 0 70 70 0 70 0 0 -70z m-390 -45 l0 -55
-205 0 -205 0 0 55 0 55 205 0 205 0 0 -55z m-140 -245 c0 -39 -1 -40 -35 -40
-34 0 -35 1 -35 40 0 39 1 40 35 40 34 0 35 -1 35 -40z m-4590 -145 l0 -55
-700 0 -700 0 0 55 0 55 700 0 700 0 0 -55z m1250 -70 l0 -55 -55 0 -55 0 0
55 0 55 55 0 55 0 0 -55z m-2440 -170 c0 -34 -1 -35 -40 -35 -39 0 -40 1 -40
35 0 34 1 35 40 35 39 0 40 -1 40 -35z m-285 -535 c39 -40 39 -40 13 -40 -19
0 -35 12 -58 40 -27 35 -29 40 -13 40 10 0 37 -18 58 -40z"/>
<path d="M3190 7591 l0 -41 46 0 45 0 -3 38 c-3 36 -4 37 -45 40 l-43 3 0 -40z"/>
<path d="M6590 7510 c0 -13 7 -20 20 -20 11 0 20 3 20 8 0 4 -9 13 -20 20 -18
11 -20 10 -20 -8z"/>
<path d="M2772 7413 l3 -98 93 -3 92 -3 0 101 0 100 -95 0 -96 0 3 -97z"/>
<path d="M2990 7075 l0 -125 125 0 125 0 0 125 0 125 -125 0 -125 0 0 -125z"/>
<path d="M6947 6193 c-1 -1 -1 -44 1 -97 l3 -96 130 0 129 0 0 94 0 95 -131 3
c-72 2 -131 2 -132 1z"/>
<path d="M7000 5645 l0 -125 170 0 170 0 0 125 0 125 -170 0 -170 0 0 -125z"/>
<path d="M6900 4623 l0 -163 160 0 160 0 -2 160 -3 161 -158 2 -157 2 0 -162z"/>
<path d="M6187 4523 c-4 -3 -7 -17 -7 -30 0 -19 5 -23 30 -23 27 0 30 3 30 30
0 25 -4 30 -23 30 -13 0 -27 -3 -30 -7z"/>
<path d="M2920 4365 l0 -85 80 0 80 0 0 85 0 85 -80 0 -80 0 0 -85z"/>
<path d="M3332 4263 l3 -118 115 0 115 0 3 118 3 117 -121 0 -121 0 3 -117z"/>
<path d="M3710 4185 l0 -95 40 0 40 0 0 95 0 95 -40 0 -40 0 0 -95z"/>
<path d="M7238 4234 c-3 -3 -4 -14 -1 -25 5 -17 15 -19 84 -19 78 0 79 0 79
25 0 25 -1 25 -78 25 -43 0 -81 -3 -84 -6z"/>
<path d="M2888 4115 c-5 -22 -2 -25 23 -25 24 0 29 4 29 25 0 20 -5 25 -24 25
-17 0 -25 -7 -28 -25z"/>
<path d="M6900 4005 c0 -52 0 -98 0 -102 0 -5 46 -8 103 -8 l102 0 3 103 3
102 -106 0 -105 0 0 -95z"/>
<path d="M2820 3945 l0 -86 81 3 81 3 1 80 1 80 -82 3 -82 3 0 -86z"/>
<path d="M2650 3865 l0 -65 60 0 60 0 0 65 0 65 -60 0 -60 0 0 -65z"/>
<path d="M7410 3895 c0 -3 23 -35 52 -70 l52 -65 238 0 238 0 0 70 0 70 -290
0 c-159 0 -290 -2 -290 -5z"/>
<path d="M1730 3830 l0 -30 80 0 80 0 0 30 0 30 -80 0 -80 0 0 -30z"/>
<path d="M2910 3815 c0 -33 2 -35 35 -35 33 0 35 2 35 35 0 33 -2 35 -35 35
-33 0 -35 -2 -35 -35z"/>
<path d="M1960 3580 l0 -70 240 0 240 0 0 24 c0 13 3 44 6 70 l7 46 -247 0
-246 0 0 -70z"/>
<path d="M8180 3500 l0 -101 133 3 132 3 0 95 0 95 -132 3 -133 3 0 -101z"/>
<path d="M1582 2935 c-13 -20 -22 -40 -20 -44 2 -3 19 -4 39 -1 l36 5 -17 39
-16 39 -22 -38z"/>
</g>
</svg>
